<?xml version="1.0" encoding="UTF-8" standalone="no"?>
<svg width="30px" height="30px" viewBox="0 0 30 30" version="1.1" xmlns="http://www.w3.org/2000/svg" xmlns:xlink="http://www.w3.org/1999/xlink" xmlns:sketch="http://www.bohemiancoding.com/sketch/ns">
    <!-- Generator: Sketch 3.3.2 (12043) - http://www.bohemiancoding.com/sketch -->
    <title>safari_svg</title>
    <desc>Created with Sketch.</desc>
    <defs></defs>
    <g id="Page-1" stroke="none" stroke-width="1" fill="none" fill-rule="evenodd" sketch:type="MSPage">
        <g id="Artboard" sketch:type="MSArtboardGroup" transform="translate(-200.000000, -131.000000)" fill="#000000">
            <g id="safari_svg" sketch:type="MSLayerGroup" transform="translate(200.000000, 131.000000)">
                <path d="M21.6203075,5.39169353 L21.6203075,1.36852599 C21.6203075,1.09717925 21.8410059,0.868178678 22.1132512,0.868178678 L24.1125554,0.868178678 C24.3908115,0.868178678 24.6054991,1.0921918 24.6054991,1.36852599 L24.6054991,5.39169353 L28.6325302,5.39169353 C28.9038769,5.39169353 29.1328775,5.61220575 29.1328775,5.88422136 L29.1328775,7.88183897 C29.1328775,8.15986029 28.9088644,8.3743668 28.6325302,8.3743668 L24.6054991,8.3743668 L24.6054991,12.3678314 C24.6054991,12.6391781 24.3848007,12.8681787 24.1125554,12.8681787 L22.1132512,12.8681787 C21.8349952,12.8681787 21.6203075,12.6441656 21.6203075,12.3678314 L21.6203075,8.3743668 L17.6332248,8.3743668 C17.3618781,8.3743668 17.1328775,8.15385458 17.1328775,7.88183897 L17.1328775,5.88422136 C17.1328775,5.60620004 17.3568906,5.39169353 17.6332248,5.39169353 L21.6203075,5.39169353 Z" id="Rectangle-287" sketch:type="MSShapeGroup"></path>
                <path d="M12.1727548,16.4292571 L12.1622016,16.4292571 L12.6845525,8.1295935 C12.7028229,7.83929435 12.9432312,7.6039604 13.2360639,7.6039604 L14.6437717,7.6039604 C14.9300926,7.6039604 15.1889492,7.84001576 15.2217614,8.1295935 L16.1121214,15.9872845 L16.1121214,15.9872845 L19.9125698,20.0170632 C20.0536227,20.1666277 20.0472544,20.4059361 19.9000029,20.5499526 L18.8975516,21.5303806 C18.7495581,21.6751228 18.4910377,21.7056439 18.3121847,21.5935729 L13.1933245,18.3860453 C12.5783518,18.0448571 12.1622016,17.3889409 12.1622016,16.6359647 C12.1622016,16.5661705 12.165777,16.4972102 12.1727548,16.4292571 Z" id="Fill-15" sketch:type="MSShapeGroup"></path>
                <path d="M27.3153229,15.4182774 C28.9402428,15.4182774 28.9428298,15.8040995 28.9402427,15.8848966 C28.6925911,23.6190638 22.3105508,29.8132627 14.4738515,29.8132627 C6.48016406,29.8132627 0,23.3684082 0,15.4182773 C0,7.61179049 6.24811037,1.25667644 14.0420696,1.02957458 C14.1149377,1.02745134 14.4738512,1.02957458 14.4738512,2.66524477 C14.4738512,4.30091495 14.1282698,4.07673174 14.0610519,4.0785417 C7.43605089,4.2569314 3.06095126,8.73796594 3.06095126,15.4182773 C3.06095126,22.2363783 7.61839602,26.7635413 14.4738515,26.7635413 C21.1433545,26.7635413 25.6378219,22.4786438 25.8767375,15.9679939 C25.8799249,15.8811336 25.690403,15.4182774 27.3153229,15.4182774 Z" id="Oval-62" opacity="0.9" sketch:type="MSShapeGroup"></path>
            </g>
        </g>
    </g>
</svg>